<svg width="58" height="50" viewBox="0 0 58 50" fill="none" xmlns="http://www.w3.org/2000/svg">
<path d="M28.654 13.433C32.3634 13.433 35.3705 10.4259 35.3705 6.71651C35.3705 3.00709 32.3634 0 28.654 0C24.9446 0 21.9375 3.00709 21.9375 6.71651C21.9375 10.4259 24.9446 13.433 28.654 13.433Z" fill="#FFF5F5"/>
<path d="M52.1654 25.1951L45.9056 23.8893C43.7729 23.4426 41.6674 24.42 40.5542 26.1578C39.473 25.6025 38.3104 25.1236 37.0737 24.7261V21.0038C37.0762 18.1874 34.7706 15.8843 31.9642 15.8843H25.5636C22.7423 15.8843 20.4466 18.1874 20.4466 21.0038V24.7458C19.2223 25.1358 18.072 25.6147 16.9834 26.1726C15.8702 24.4274 13.7621 23.4426 11.6269 23.8893L5.36209 25.1951C2.61228 25.7702 0.827584 28.4979 1.40272 31.2575L2.97514 38.7689C3.54536 41.5211 6.27538 43.3058 9.02772 42.7306L11.0098 42.3159C12.0021 43.7822 13.3746 45.1274 15.132 46.2777C18.7926 48.677 23.6283 50.0001 28.76 50.0001C36.6121 50.0001 43.3755 46.843 46.4906 42.3085L48.5048 42.7306C51.2547 43.3033 53.9847 41.5211 54.5549 38.7689L56.1297 31.2575C56.7023 28.4979 54.9176 25.7702 52.1654 25.1951ZM28.7575 47.4354C24.1219 47.4354 19.7774 46.2679 16.5364 44.1327C15.4257 43.4069 14.5049 42.5999 13.7669 41.7359L15.285 41.4174C18.0398 40.8448 19.8244 38.1172 19.2493 35.3624L17.8398 28.6089C18.6618 28.167 19.5258 27.7794 20.444 27.4487V28.6805C20.444 31.492 22.7445 33.7951 25.561 33.7951H31.9615C34.7706 33.7951 37.0712 31.4896 37.0712 28.6805V27.3845C38.0067 27.7178 38.8854 28.1004 39.7 28.5348L38.2708 35.365C37.7006 38.1197 39.4827 40.8473 42.2375 41.4199L43.7703 41.7408C40.912 45.125 35.2568 47.4354 28.7575 47.4354Z" fill="#FFF5F5"/>
<path d="M50.8029 22.2626C54.5124 22.2626 57.5195 19.2555 57.5195 15.5461C57.5195 11.8367 54.5124 8.82959 50.8029 8.82959C47.0935 8.82959 44.0864 11.8367 44.0864 15.5461C44.0864 19.2555 47.0935 22.2626 50.8029 22.2626Z" fill="#FFF5F5"/>
<path d="M8.09459 22.1219C11.7281 21.3616 14.0484 17.7997 13.298 14.1687C12.5328 10.5401 8.97824 8.20993 5.34226 8.97022C1.71371 9.728 -0.616484 13.2874 0.143807 16.9185C0.901695 20.552 4.46112 22.8797 8.09459 22.1219Z" fill="#FFF5F5"/>
</svg>
