<svg width="50" height="50" viewBox="0 0 50 50" fill="none" xmlns="http://www.w3.org/2000/svg">
<path d="M50 25C50 29.9445 48.5338 34.778 45.7867 38.8893C43.0397 43.0005 39.1352 46.2048 34.5671 48.097C29.9989 49.9892 24.9723 50.4842 20.1227 49.5196C15.2732 48.555 10.8187 46.174 7.32234 42.6777C3.82603 39.1814 1.44501 34.7268 0.480379 29.8773C-0.484251 25.0277 0.0108321 20.0011 1.90302 15.4329C3.79521 10.8648 6.99952 6.96029 11.1108 4.21326C15.222 1.46622 20.0555 1.99498e-07 25 1.99498e-07C28.2832 -0.000414577 31.5343 0.645947 34.5676 1.90217C37.6009 3.15839 40.357 4.99986 42.6786 7.3214C45.0001 9.64295 46.8416 12.3991 48.0978 15.4324C49.3541 18.4657 50.0004 21.7168 50 25ZM34.7038 30.5387C34.7012 28.823 34.0775 27.1662 32.9481 25.8747L32.9449 25.8684C32.1977 25.0174 31.3048 24.3063 30.3082 23.7685L30.2987 23.7622C29.4347 23.3136 28.5152 22.9813 27.5641 22.7738H27.5578C26.7326 22.5979 25.8911 22.5101 25.0474 22.5117C24.545 22.5147 24.0433 22.4756 23.5474 22.3948C23.0061 22.3047 22.4807 22.1367 21.9875 21.8959L21.9812 21.8928C21.5303 21.6627 21.1316 21.3424 20.8097 20.9517L20.8065 20.9486C20.4737 20.5593 20.2793 20.0707 20.2539 19.5592C20.2786 19.1393 20.4148 18.7337 20.6485 18.384C20.8822 18.0343 21.2049 17.7532 21.5833 17.5698C22.6454 16.946 23.8567 16.6219 25.0884 16.6319C25.5052 16.6655 25.9184 16.7352 26.3231 16.8403L26.4778 16.8719C26.9921 16.9957 27.4926 17.1714 27.9715 17.3961C28.4175 17.5986 28.8247 17.8775 29.1746 18.2203C29.4029 18.4689 29.6792 18.6688 29.9868 18.8078C30.2945 18.9468 30.627 19.022 30.9645 19.0291C31.302 19.0361 31.6375 18.9747 31.9506 18.8487C32.2638 18.7226 32.5481 18.5344 32.7866 18.2955C33.0251 18.0566 33.2128 17.7719 33.3383 17.4585C33.4638 17.1451 33.5246 16.8096 33.5169 16.4721C33.5093 16.1346 33.4334 15.8022 33.2939 15.4948C33.1543 15.1874 32.954 14.9115 32.7049 14.6836C31.9278 13.9124 31.0187 13.2868 30.0208 12.8363C29.2262 12.469 28.3954 12.1854 27.542 11.99H27.5388L27.5136 11.9837V9.5017C27.5255 9.16601 27.4697 8.83135 27.3495 8.51769C27.2292 8.20404 27.0471 7.91782 26.8138 7.67611C26.5805 7.43441 26.301 7.24217 25.9918 7.11087C25.6826 6.97957 25.3501 6.9119 25.0142 6.9119C24.6783 6.9119 24.3458 6.97957 24.0367 7.11087C23.7275 7.24217 23.4479 7.43441 23.2146 7.67611C22.9814 7.91782 22.7992 8.20404 22.679 8.51769C22.5587 8.83135 22.5029 9.16601 22.5148 9.5017V11.9111C21.2409 12.1768 20.0228 12.6619 18.915 13.3447C17.8229 13.9785 16.9124 14.883 16.2714 15.9709C15.6304 17.0588 15.2804 18.2935 15.2552 19.556C15.2742 21.2184 15.8639 22.8238 16.9256 24.1032C17.6954 25.0495 18.6577 25.8213 19.7486 26.3673C20.6869 26.8343 21.6894 27.1589 22.7233 27.3304C23.4914 27.4576 24.2688 27.5199 25.0474 27.5167C25.5353 27.514 26.0222 27.5627 26.4999 27.662C27.0123 27.7745 27.508 27.9528 27.9746 28.1925C28.4297 28.4448 28.8378 28.7738 29.1809 29.1651C29.5128 29.5474 29.6975 30.0356 29.7019 30.5419C29.7019 30.8482 29.7019 31.565 28.4862 32.3513C27.4077 33.0023 26.1714 33.3453 24.9116 33.3428C24.3878 33.3166 23.8665 33.2533 23.3517 33.1533C22.8539 33.047 22.3683 32.8904 21.9022 32.686C21.4639 32.4913 21.0753 32.1946 20.7749 31.8208C20.562 31.5655 20.3004 31.3553 20.0053 31.2023C19.7102 31.0494 19.3876 30.9568 19.0564 30.9299C18.7251 30.9031 18.3918 30.9425 18.0759 31.046C17.7601 31.1494 17.468 31.3148 17.2168 31.5324C16.9656 31.7501 16.7603 32.0156 16.6129 32.3135C16.4654 32.6114 16.3789 32.9357 16.3582 33.2674C16.3376 33.5991 16.3833 33.9316 16.4926 34.2455C16.602 34.5593 16.7728 34.8483 16.9951 35.0954C17.818 36.0757 18.8656 36.8427 20.0486 37.3311C20.8344 37.6668 21.6537 37.9177 22.4927 38.0794H22.5148V40.552C22.5029 40.8877 22.5587 41.2223 22.679 41.536C22.7992 41.8496 22.9814 42.1359 23.2146 42.3776C23.4479 42.6193 23.7275 42.8115 24.0367 42.9428C24.3458 43.0741 24.6783 43.1418 25.0142 43.1418C25.3501 43.1418 25.6826 43.0741 25.9918 42.9428C26.301 42.8115 26.5805 42.6193 26.8138 42.3776C27.0471 42.1359 27.2292 41.8496 27.3495 41.536C27.4697 41.2223 27.5255 40.8877 27.5136 40.552V38.0573C28.8251 37.7763 30.0761 37.2641 31.2082 36.5448C32.2627 35.9356 33.14 35.0616 33.7531 34.0093C34.3662 32.957 34.6939 31.7629 34.7038 30.545V30.5387Z" fill="#FFF5F5"/>
</svg>
