<svg width="50" height="50" viewBox="0 0 50 50" fill="none" xmlns="http://www.w3.org/2000/svg">
<path d="M47.7273 18.1818H44.2897C44.0491 17.502 43.7721 16.8344 43.4599 16.1824L45.8917 13.7506C46.7792 12.863 46.7792 11.4241 45.8918 10.5365L39.4636 4.10818C39.0374 3.68197 38.4592 3.44242 37.8565 3.44242C37.2538 3.44242 36.6758 3.68182 36.2495 4.10818L33.8176 6.54C33.1655 6.22773 32.4982 5.95091 31.8182 5.7103V2.27273C31.8182 1.01758 30.8006 0 29.5455 0H20.4545C19.1994 0 18.1818 1.01758 18.1818 2.27273V5.7103C17.5018 5.95091 16.8344 6.22788 16.1826 6.54L13.7506 4.10818C12.8632 3.22061 11.4241 3.22061 10.5365 4.10818L4.10818 10.5365C3.22061 11.4241 3.22061 12.863 4.10818 13.7506L6.54 16.1826C6.22788 16.8345 5.95106 17.5018 5.71045 18.1818H2.27273C1.01758 18.1818 0 19.1994 0 20.4545V29.5455C0 30.8006 1.01758 31.8182 2.27273 31.8182H5.71045C5.95106 32.498 6.22803 33.1656 6.54 33.8174L4.10818 36.2494C3.68197 36.6756 3.44242 37.2536 3.44242 37.8564C3.44242 38.4592 3.68182 39.0373 4.10818 39.4635L10.5367 45.8917C11.4242 46.7791 12.8632 46.7791 13.7506 45.8917L16.1827 43.46C16.8348 43.7721 17.502 44.0491 18.1818 44.2897V47.7273C18.1818 48.9824 19.1994 50 20.4545 50H29.5455C30.8006 50 31.8182 48.9824 31.8182 47.7273V44.2895C32.4982 44.0489 33.1656 43.7721 33.8176 43.4599L36.2497 45.8917C37.1371 46.7791 38.5761 46.7792 39.4636 45.8915L45.8918 39.4633C46.7794 38.5758 46.7794 37.1368 45.8918 36.2492L43.46 33.8174C43.7723 33.1655 44.0492 32.498 44.2898 31.818H47.7273C48.9824 31.818 50 30.8005 50 29.5453V20.4544C50 19.1994 48.9824 18.1818 47.7273 18.1818ZM45.4545 27.2727H42.6089C41.5717 27.2727 40.6662 27.9748 40.4079 28.9794C40.0389 30.4141 39.4665 31.7935 38.7068 33.0791C38.1792 33.972 38.323 35.1089 39.0565 35.8423L41.0708 37.8565L37.8567 41.0706L35.8423 39.0565C35.1091 38.3233 33.9723 38.1794 33.0795 38.7068C31.7939 39.4662 30.4142 40.0386 28.9791 40.4082C27.9747 40.6665 27.2727 41.572 27.2727 42.6091V45.4545H22.7273V42.6091C22.7273 41.5721 22.0253 40.6667 21.0211 40.4082C19.5861 40.0388 18.2067 39.4664 16.9208 38.7068C16.0277 38.1792 14.8912 38.3232 14.158 39.0565L12.1436 41.0706L8.92924 37.8564L10.9435 35.8421C11.677 35.1088 11.8208 33.972 11.2932 33.0791C10.5338 31.7938 9.96152 30.4142 9.59197 28.9789C9.33364 27.9747 8.42803 27.2727 7.39106 27.2727H4.54545V22.7273H7.39106C8.42803 22.7273 9.33348 22.0253 9.59197 21.0211C9.96136 19.5856 10.5338 18.2061 11.2932 16.9208C11.8208 16.0279 11.677 14.8911 10.9435 14.1577L8.92939 12.1435L12.1436 8.92939L14.1579 10.9435C14.8912 11.6768 16.0282 11.8208 16.9209 11.2932C18.2064 10.5336 19.5861 9.96136 21.0212 9.59182C22.0253 9.33348 22.7273 8.42803 22.7273 7.39091V4.54545H27.2727V7.39091C27.2727 8.42788 27.9747 9.33333 28.9789 9.59182C30.4144 9.96136 31.7939 10.5336 33.0794 11.2932C33.9724 11.8206 35.1091 11.6768 35.8424 10.9435L37.8567 8.92939L41.0708 12.1435L39.0565 14.1577C38.323 14.8911 38.1792 16.028 38.7068 16.9209C39.4665 18.2064 40.0388 19.5858 40.4079 21.0206C40.6662 22.025 41.5718 22.7271 42.6089 22.7271H45.4545V27.2727Z" fill="#FFF5F5"/>
<path d="M28.2414 20.0599L23.0302 25.2709L21.6068 23.8477C20.7194 22.9602 19.2803 22.9602 18.3927 23.8477C17.5052 24.7353 17.5052 26.1743 18.3927 27.0618L21.423 30.0921C21.8668 30.5359 22.4485 30.7577 23.0302 30.7577C23.6118 30.7577 24.1935 30.5359 24.6371 30.092L31.4553 23.2738C32.3429 22.3862 32.3429 20.9473 31.4553 20.0597C30.5679 19.1721 29.1288 19.1721 28.2414 20.0599Z" fill="#FFF5F5"/>
</svg>
